HIERARCHY
ROOT Hips
{
	OFFSET 0.00000 0.00000 0.00000
	CHANNELS 6 Xposition Yposition Zposition Zrotation Yrotation Xrotation 
	JOINT LHipJoint
	{
		OFFSET 0 0 0
		CHANNELS 3 Zrotation Yrotation Xrotation
		JOINT LeftUpLeg
		{
			OFFSET 1.62964 -1.40469 0.78906
			CHANNELS 3 Zrotation Yrotation Xrotation
			JOINT LeftLeg
			{
				OFFSET 2.29640 -6.30932 0.00000
				CHANNELS 3 Zrotation Yrotation Xrotation
				JOINT LeftFoot
				{
					OFFSET 2.29451 -6.30412 0.00000
					CHANNELS 3 Zrotation Yrotation Xrotation
					JOINT LeftToeBase
					{
						OFFSET 0.03611 -0.09921 1.56387
						CHANNELS 3 Zrotation Yrotation Xrotation
						End Site
						{
							OFFSET 0.00000 -0.00000 0.80291
						}
					}
				}
			}
		}
	}
	JOINT RHipJoint
	{
		OFFSET 0 0 0
		CHANNELS 3 Zrotation Yrotation Xrotation
		JOINT RightUpLeg
		{
			OFFSET -1.73712 -1.40469 0.78906
			CHANNELS 3 Zrotation Yrotation Xrotation
			JOINT RightLeg
			{
				OFFSET -2.28137 -6.26801 0.00000
				CHANNELS 3 Zrotation Yrotation Xrotation
				JOINT RightFoot
				{
					OFFSET -2.28681 -6.28298 0.00000
					CHANNELS 3 Zrotation Yrotation Xrotation
					JOINT RightToeBase
					{
						OFFSET -0.15927 -0.43759 1.61103
						CHANNELS 3 Zrotation Yrotation Xrotation
						End Site
						{
							OFFSET -0.00000 -0.00000 0.84630
						}
					}
				}
			}
		}
	}
	JOINT LowerBack
	{
		OFFSET 0 0 0
		CHANNELS 3 Zrotation Yrotation Xrotation
		JOINT Spine
		{
			OFFSET -0.04227 2.04338 -0.00225
			CHANNELS 3 Zrotation Yrotation Xrotation
			JOINT Spine1
			{
				OFFSET -0.02148 2.04482 -0.04273
				CHANNELS 3 Zrotation Yrotation Xrotation
				JOINT Neck
				{
					OFFSET 0 0 0
					CHANNELS 3 Zrotation Yrotation Xrotation
					JOINT Neck1
					{
						OFFSET 0.09180 1.44629 0.19359
						CHANNELS 3 Zrotation Yrotation Xrotation
						JOINT Head
						{
							OFFSET 0.00887 1.40645 0.14750
							CHANNELS 3 Zrotation Yrotation Xrotation
							End Site
							{
								OFFSET -0.00669 1.50671 0.03707
							}
						}
					}
				}
				JOINT LeftShoulder
				{
					OFFSET 0 0 0
					CHANNELS 3 Zrotation Yrotation Xrotation
					JOINT LeftArm
					{
						OFFSET 2.17674 1.86763 -0.06520
						CHANNELS 3 Zrotation Yrotation Xrotation
						JOINT LeftForeArm
						{
							OFFSET 4.65776 -0.00000 0.00000
							CHANNELS 3 Zrotation Yrotation Xrotation
							JOINT LeftHand
							{
								OFFSET 3.55539 -0.00000 0.00000
								CHANNELS 3 Zrotation Yrotation Xrotation
								JOINT LeftFingerBase
								{
									OFFSET 0 0 0
									CHANNELS 3 Zrotation Yrotation Xrotation
									JOINT LeftHandIndex1
									{
										OFFSET 0.70726 -0.00000 0.00000
										CHANNELS 3 Zrotation Yrotation Xrotation
										End Site
										{
											OFFSET 0.57022 -0.00000 0.00000
										}
									}
								}
								JOINT LThumb
								{
									OFFSET 0 0 0
									CHANNELS 3 Zrotation Yrotation Xrotation
									End Site
									{
										OFFSET 0.57892 -0.00000 0.57892
									}
								}
							}
						}
					}
				}
				JOINT RightShoulder
				{
					OFFSET 0 0 0
					CHANNELS 3 Zrotation Yrotation Xrotation
					JOINT RightArm
					{
						OFFSET -2.80694 1.55459 -0.32496
						CHANNELS 3 Zrotation Yrotation Xrotation
						JOINT RightForeArm
						{
							OFFSET -4.71925 -0.00000 -0.00000
							CHANNELS 3 Zrotation Yrotation Xrotation
							JOINT RightHand
							{
								OFFSET -3.56990 -0.00000 0.00000
								CHANNELS 3 Zrotation Yrotation Xrotation
								JOINT RightFingerBase
								{
									OFFSET 0 0 0
									CHANNELS 3 Zrotation Yrotation Xrotation
									JOINT RightHandIndex1
									{
										OFFSET -0.50776 -0.00000 0.00000
										CHANNELS 3 Zrotation Yrotation Xrotation
										End Site
										{
											OFFSET -0.40937 -0.00000 0.00000
										}
									}
								}
								JOINT RThumb
								{
									OFFSET 0 0 0
									CHANNELS 3 Zrotation Yrotation Xrotation
									End Site
									{
										OFFSET -0.41562 -0.00000 0.41562
									}
								}
							}
						}
					}
				}
			}
		}
	}
}
MOTION
Frames: 10
Frame Time: .0083333
1.5705 16.9644 12.9657 167.6740 -11.3674 -144.5790 0.0000 0.0000 0.0000 -17.8470 -20.6750 -10.1145 3.8000 11.8893 35.3416 0.9634 -19.9045 -21.0146 1.7763 -8.3837 -23.8857 0.0000 0.0000 0.0000 -20.2512 18.0876 -44.1135 -0.2442 -3.1797 8.7795 1.6168 -22.6244 -15.2162 -0.9189 6.1074 -17.0964 -8.7362 -7.2302 -25.6310 -2.7971 -7.7054 -2.9178 -1.0361 -4.3085 11.5995 -3.1741 -6.2218 -3.3613 -1.3046 -6.2273 24.1833 -0.2976 -2.6971 8.0917 0.0000 0.0000 0.0000 -64.6502 13.5982 27.9222 27.9283 -39.0501 -10.0785 -0.0000 0.0000 -14.7573 22.7637 -10.6226 -4.4231 -7.1250 0.0000 -0.0000 -3.0324 18.4921 1.9167 0.0000 0.0000 0.0000 90.6304 -22.7768 -0.5861 -17.6287 27.6791 -4.3754 0.0000 0.0000 4.8428 -13.2222 -53.5907 10.7078 7.1250 -0.0000 -0.0000 68.6637 -76.3595 -55.0897
1.5991 16.9960 12.9082 167.5440 -10.9761 -144.2560 0.0000 0.0000 0.0000 -18.0118 -20.5021 -10.0621 3.6999 11.7500 34.8532 0.9038 -19.4474 -20.4222 1.9192 -8.6956 -24.8478 0.0000 0.0000 0.0000 -20.3816 18.3671 -44.2034 -0.2281 -3.0742 8.4855 1.6940 -22.9514 -14.7784 -1.0698 6.5751 -18.4625 -8.5146 -7.5428 -25.1281 -2.4004 -8.2169 -2.8625 -0.8448 -4.5244 11.4699 -3.3260 -5.8774 -3.4470 -1.5994 -5.7606 23.5775 -0.3305 -2.5502 7.8948 -0.0000 -0.0000 0.0000 -65.2713 13.8456 27.6502 27.8404 -38.9689 -10.0232 -0.0000 0.0000 -14.8129 22.2660 -9.6295 -3.9180 -7.1250 0.0000 -0.0000 -3.3542 19.5999 2.0382 -0.0000 -0.0000 0.0000 89.8467 -22.3740 1.4869 -18.4344 28.7098 -4.7561 0.0000 0.0000 3.2988 -12.9471 -52.8575 10.3847 7.1250 -0.0000 -0.0000 65.8538 -76.0502 -52.1747
1.6303 17.0213 12.8574 167.3410 -10.7025 -143.5650 0.0000 0.0000 0.0000 -17.9736 -20.3691 -10.5669 3.6317 11.6535 34.5169 0.8477 -19.1270 -19.9029 2.0422 -8.9535 -25.6501 0.0000 0.0000 0.0000 -20.8693 18.6213 -44.6747 -0.2208 -3.0250 8.3483 1.8076 -23.5514 -14.7443 -1.1840 6.9055 -19.4358 -8.4138 -7.9223 -24.5779 -1.8781 -8.8854 -3.2674 -0.4532 -4.8426 10.8331 -3.7564 -5.4194 -2.5068 -1.7757 -5.1448 22.5369 -0.2349 -2.3197 7.3861 -0.0000 -0.0000 0.0000 -65.8785 14.5393 27.8215 27.6321 -38.7753 -9.8924 -0.0000 0.0000 -14.4731 21.8278 -9.9708 -3.9672 -7.1250 0.0000 -0.0000 -3.6755 19.2680 2.2614 -0.0000 -0.0000 0.0000 88.8984 -22.7892 3.6489 -19.4121 29.9275 -5.2348 0.0000 0.0000 1.4787 -13.3594 -52.2271 10.6317 7.1250 -0.0000 -0.0000 63.2240 -76.0057 -49.7493
1.6615 17.0454 12.8019 166.9920 -10.6011 -142.9300 0.0000 0.0000 0.0000 -17.9956 -20.2862 -10.9525 3.5530 11.5405 34.1253 0.7910 -18.9106 -19.4166 2.1664 -9.2044 -26.4368 0.0000 0.0000 0.0000 -21.6327 19.0156 -44.7938 -0.2069 -2.9287 8.0804 1.9142 -24.2246 -15.3915 -1.0845 6.6188 -18.5908 -8.4003 -8.5098 -24.4275 -1.3706 -9.7623 -3.6258 -0.1678 -5.2655 10.4982 -4.3088 -4.6779 -0.4486 -1.9032 -4.2312 20.7565 -0.0624 -1.9247 6.4518 -0.0000 -0.0000 0.0000 -66.3909 15.4941 27.9109 27.4971 -38.6492 -9.8080 -0.0000 0.0000 -13.7199 21.1915 -10.5937 -4.0770 -7.1250 0.0000 -0.0000 -4.1425 18.6538 2.6068 -0.0000 -0.0000 0.0000 87.8452 -23.4540 6.1410 -20.4433 31.1728 -5.7591 0.0000 -0.0000 -0.1269 -13.2911 -51.8050 10.5174 7.1250 -0.0000 -0.0000 61.6599 -75.8282 -48.1654
1.6926 17.0670 12.7455 166.5940 -10.6711 -142.2230 0.0000 0.0000 0.0000 -17.9336 -20.2664 -11.4222 3.4662 11.4140 33.6891 0.6986 -18.7370 -18.6876 2.2721 -9.4112 -27.0903 0.0000 0.0000 0.0000 -22.5479 19.4164 -44.7744 -0.1840 -2.7626 7.6184 2.0168 -24.9491 -16.4749 -0.7543 5.5470 -15.4755 -7.9665 -8.6157 -24.4016 -1.4632 -9.9354 -3.2470 -0.5987 -5.3092 10.8500 -4.0842 -4.8634 -2.1748 -1.5683 -4.5696 21.3127 -0.0585 -2.0972 6.9348 -0.0000 0.0000 0.0000 -65.5604 14.3191 28.8622 27.1849 -38.3550 -9.6137 -0.0000 0.0000 -12.6383 20.7573 -11.0402 -4.1512 -7.1250 0.0000 -0.0000 -4.4600 18.2149 2.8510 -0.0000 0.0000 0.0000 88.5319 -22.7562 6.6507 -21.4003 32.2926 -6.2624 0.0000 -0.0000 -1.2433 -11.0220 -51.2192 8.6338 7.1250 -0.0000 -0.0000 60.8863 -74.7310 -46.3274
1.7244 17.0863 12.6898 166.2320 -10.8139 -141.5140 0.0000 0.0000 0.0000 -17.7680 -20.2254 -11.9479 3.3541 11.2474 33.1188 0.3645 -19.4764 -16.6257 1.1983 -6.9457 -19.5546 0.0000 0.0000 0.0000 -23.4423 19.8052 -44.7183 -0.1580 -2.5614 7.0599 2.1733 -25.8768 -17.3859 -0.5016 4.5404 -12.6023 -7.5370 -8.7715 -24.4452 -1.4756 -10.2340 -3.1732 -0.9627 -5.4270 10.9057 -3.5415 -4.5686 -1.5162 -1.8366 -4.3140 20.1259 -0.1948 -1.9755 6.4093 0.0000 -0.0000 0.0000 -64.7447 13.6998 30.0975 26.9025 -38.0861 -9.4389 -0.0000 0.0000 -11.3518 21.0502 -11.7298 -4.4739 -7.1250 0.0000 -0.0000 -4.2736 17.4583 2.8025 0.0000 -0.0000 0.0000 88.9928 -22.6205 7.0699 -22.2344 33.2409 -6.7139 0.0000 -0.0000 -2.3326 -7.6911 -50.1479 5.9190 7.1250 -0.0000 -0.0000 59.6766 -73.0320 -43.4650
1.7541 17.1025 12.6332 165.8630 -10.9029 -140.9490 0.0000 0.0000 0.0000 -17.7249 -20.2288 -12.2834 3.2298 11.0580 32.4758 0.0299 -20.0957 -14.3901 0.2470 -3.1984 -8.8315 0.0000 0.0000 0.0000 -24.0853 19.9325 -44.7174 -0.1447 -2.4516 6.7556 2.2936 -26.5029 -17.7881 -0.4282 4.1994 -11.6384 -7.1233 -8.9465 -24.5782 -1.4737 -10.5195 -2.9492 -1.3282 -5.5280 11.1819 -3.4385 -4.4257 -1.4799 -1.8331 -4.2218 19.4989 -0.2010 -1.9474 6.1982 0.0000 0.0000 0.0000 -63.9252 12.7265 31.2265 26.6568 -37.8500 -9.2878 -0.0000 0.0000 -10.0454 21.1050 -12.2673 -4.6882 -7.1250 0.0000 -0.0000 -4.2529 16.8830 2.8424 0.0000 0.0000 0.0000 89.4081 -22.1963 7.4421 -22.8854 33.9632 -7.0741 0.0000 -0.0000 -3.2234 -7.6231 -49.9294 5.8479 7.1250 -0.0000 -0.0000 59.0806 -72.9077 -42.8243
1.7844 17.1167 12.5767 165.5360 -10.9292 -140.5630 0.0000 0.0000 0.0000 -17.7566 -20.1570 -12.3762 3.1263 10.8968 31.9326 -0.1404 -20.2045 -13.0413 0.0235 -0.9897 -2.7204 0.0000 0.0000 0.0000 -24.3697 19.8056 -44.7737 -0.1434 -2.4404 6.7245 2.2914 -26.5405 -18.0079 -0.4075 4.0980 -11.3524 -6.9182 -9.0602 -24.0313 -1.2979 -10.7663 -2.9978 -1.2417 -5.6353 10.8548 -3.7471 -4.3906 -1.6605 -1.6338 -4.1997 19.4427 -0.0899 -1.9538 6.2247 0.0000 0.0000 0.0000 -63.5271 11.8620 32.1867 26.3546 -37.5567 -9.1029 -0.0000 0.0000 -8.1842 20.7609 -12.8586 -4.8223 -7.1250 0.0000 -0.0000 -4.5120 16.2888 3.0750 0.0000 0.0000 0.0000 89.4632 -22.3780 7.9598 -23.5883 34.7259 -7.4708 0.0000 -0.0000 -4.0107 -10.0664 -50.5936 7.8102 7.1250 -0.0000 -0.0000 59.4281 -74.1081 -44.4014
1.8158 17.1313 12.5208 165.3370 -10.9505 -140.3650 0.0000 0.0000 0.0000 -17.7169 -19.8592 -12.2390 3.0159 10.7207 31.3436 -0.2049 -19.9524 -12.2729 0.0035 -0.3828 -1.0517 0.0000 0.0000 0.0000 -24.4140 19.7317 -44.7402 -0.1432 -2.4390 6.7205 2.2383 -26.3681 -18.2819 -0.3656 3.8840 -10.7506 -6.5040 -8.9668 -23.4315 -1.3505 -10.7735 -2.9621 -1.4253 -5.6209 10.4989 -3.8631 -4.6898 -2.0800 -1.1600 -4.6599 19.8513 0.0379 -2.1575 6.4475 0.0000 -0.0000 0.0000 -62.6764 10.7515 33.3819 25.9581 -37.1673 -8.8623 -0.0000 0.0000 -6.3920 20.9407 -13.5588 -5.1266 -7.1250 0.0000 -0.0000 -4.4146 15.5303 3.0807 0.0000 -0.0000 0.0000 89.9460 -22.6269 8.1155 -24.1543 35.3270 -7.7956 0.0000 -0.0000 -4.7266 -10.4944 -50.6894 8.1563 7.1250 -0.0000 -0.0000 59.4543 -74.3103 -44.6374
1.8450 17.1434 12.4667 165.3090 -10.9509 -140.1350 0.0000 0.0000 0.0000 -17.5291 -19.5045 -12.2061 2.9068 10.5426 30.7523 -0.1715 -19.2945 -12.0488 0.0342 -1.1941 -3.2831 0.0000 0.0000 0.0000 -24.0770 19.4001 -45.0516 -0.1554 -2.5403 7.0015 2.1531 -25.9542 -18.1364 -0.3608 3.8588 -10.6797 -6.0078 -8.9139 -23.0251 -1.2549 -10.8456 -2.9704 -1.5386 -5.6341 10.2126 -3.7764 -4.5334 -1.5946 -1.2342 -4.5166 19.1428 0.0244 -2.0965 6.1307 0.0000 -0.0000 0.0000 -62.0464 9.8590 34.3708 25.7774 -36.9880 -8.7534 -0.0000 0.0000 -4.9776 21.2948 -13.8513 -5.3311 -7.1250 0.0000 -0.0000 -4.1843 15.1840 2.9503 0.0000 -0.0000 0.0000 90.0573 -22.8067 8.5337 -24.5300 35.7197 -8.0139 0.0000 -0.0000 -5.5479 -9.4539 -50.3641 7.3075 7.1250 -0.0000 -0.0000 59.1148 -73.7785 -43.7832
